<?xml version="1.0" encoding="UTF-8" standalone="no"?>
<!-- Created with Inkscape (http://www.inkscape.org/) -->

<svg
   width="174.80241mm"
   height="66.297852mm"
   viewBox="0 0 174.80241 66.297852"
   version="1.1"
   id="svg1"
   inkscape:version="1.3.2 (091e20e, 2023-11-25, custom)"
   sodipodi:docname="Logo.svg"
   inkscape:export-filename="Logo.svg"
   inkscape:export-xdpi="96"
   inkscape:export-ydpi="96"
   xmlns:inkscape="http://www.inkscape.org/namespaces/inkscape"
   xmlns:sodipodi="http://sodipodi.sourceforge.net/DTD/sodipodi-0.dtd"
   xmlns="http://www.w3.org/2000/svg"
   xmlns:svg="http://www.w3.org/2000/svg">
  <sodipodi:namedview
     id="namedview1"
     pagecolor="#ffffff"
     bordercolor="#666666"
     borderopacity="1.0"
     inkscape:showpageshadow="2"
     inkscape:pageopacity="0.0"
     inkscape:pagecheckerboard="0"
     inkscape:deskcolor="#d1d1d1"
     inkscape:document-units="mm"
     inkscape:zoom="1.28"
     inkscape:cx="459.375"
     inkscape:cy="147.26563"
     inkscape:window-width="1920"
     inkscape:window-height="1057"
     inkscape:window-x="-8"
     inkscape:window-y="-8"
     inkscape:window-maximized="1"
     inkscape:current-layer="g7" />
  <defs
     id="defs1" />
  <g
     inkscape:label="Layer 1"
     inkscape:groupmode="layer"
     id="layer1"
     transform="translate(-14.762143,-79.681982)">
    <g
       id="g7">
      <g
         id="text1"
         style="font-size:29.355px;line-height:0.85;letter-spacing:0px;word-spacing:0px;fill:#ffffff;stroke-width:0.73388"
         aria-label="9Light&#10;Studio">
        <path
           style="font-weight:bold;font-family:'Tw Cen MT';-inkscape-font-specification:'Tw Cen MT Bold'"
           d="m 95.820434,109.5946 h -4.873388 l 4.558052,-6.19207 q -1.290015,0.14333 -1.648352,0.14333 -2.422361,0 -4.09938,-1.76302 -1.662686,-1.77735 -1.662686,-4.371715 0,-2.70903 2.04969,-4.543718 2.04969,-1.849021 5.088391,-1.849021 2.895366,0 4.71572,1.863355 1.834689,1.849021 1.834689,4.801721 0,2.150024 -1.07501,4.300048 -1.060682,2.15002 -1.806024,3.2107 z m 2.078357,-11.954139 q 0,-1.218347 -0.845676,-2.04969 -0.831343,-0.845676 -2.078357,-0.845676 -1.103679,0 -1.906355,0.86001 -0.802676,0.86001 -0.802676,2.035356 0,1.18968 0.802676,2.00669 0.817009,0.817009 1.963689,0.817009 1.175347,0 2.021023,-0.831343 0.845676,-0.831343 0.845676,-1.992356 z m 6.894409,-6.865744 h 4.02772 v 14.763503 h 5.54706 v 4.05638 h -9.57478 z m 11.96847,1.935022 q 0,-0.931678 0.67368,-1.605352 0.67367,-0.673674 1.61968,-0.673674 0.94601,0 1.61969,0.673674 0.67367,0.673674 0.67367,1.605352 0,0.94601 -0.67367,1.619685 -0.67368,0.673674 -1.61969,0.673674 -0.94601,0 -1.61968,-0.673674 -0.67368,-0.673675 -0.67368,-1.619685 z m 0.47301,4.558051 h 3.66937 v 12.32681 h -3.66937 z m 15.66651,11.62447 v -1.44769 q -1.64835,2.09269 -3.81271,2.09269 -2.32203,0 -3.88438,-1.79168 -1.54802,-1.79169 -1.54802,-4.48639 0,-2.60869 1.60536,-4.429049 1.61968,-1.834687 3.88437,-1.834687 1.92069,0 3.75538,2.006689 v -1.705686 h 3.64071 V 109.7666 q 0,1.03201 -0.65934,2.36503 -0.64501,1.34734 -2.2217,1.97802 -1.56235,0.64501 -3.62637,0.64501 -2.5657,0 -4.11371,-0.96035 -1.53369,-0.96034 -2.20736,-3.2967 h 4.11371 q 1.20402,1.67702 2.6087,1.67702 1.08934,0 1.77735,-0.91735 0.68801,-0.90301 0.68801,-2.36502 z m -5.33206,-5.53273 q 0,0.94601 0.81701,1.84902 0.83134,0.88867 1.93502,0.88867 1.07501,0 1.83469,-0.84567 0.77401,-0.86001 0.77401,-2.09269 0,-1.26135 -0.73101,-2.07836 -0.73101,-0.81701 -1.87769,-0.81701 -1.16101,0 -1.96369,0.86001 -0.78834,0.84568 -0.78834,2.23603 z m 12.92881,-12.90015 h 3.72671 v 8.24176 q 1.00334,-0.86001 1.86335,-1.247014 0.86001,-0.387005 1.99236,-0.387005 1.93502,0 3.02437,1.404683 1.10368,1.390349 1.10368,3.870046 v 7.25275 h -3.69805 v -6.60774 q 0,-1.18968 -0.61634,-1.99236 -0.602,-0.81701 -1.49068,-0.81701 -1.13235,0 -1.66269,0.93168 -0.516,0.93167 -0.516,2.9097 v 5.57573 h -3.72671 z m 15.29384,2.580029 h 3.66937 v 4.228381 h 1.76302 v 3.36837 h -1.76302 v 8.95844 h -3.66937 v -8.95844 h -1.40468 v -3.36837 h 1.40468 z"
           id="path2" />
        <path
           style="font-family:'Tw Cen MT';-inkscape-font-specification:'Tw Cen MT'"
           d="m 100.27815,118.3749 -2.021021,1.61969 q -0.802676,-0.83134 -1.462017,-1.23268 -0.645007,-0.41567 -1.877688,-0.41567 -1.347348,0 -2.193025,0.61634 -0.831342,0.602 -0.831342,1.56235 0,0.83134 0.731008,1.47635 0.731008,0.63067 2.494028,1.39035 1.76302,0.74534 2.737698,1.40468 0.989011,0.64501 1.619685,1.43335 0.630674,0.78834 0.931674,1.66268 0.31534,0.87435 0.31534,1.84903 0,2.27902 -1.662685,3.88437 -1.648353,1.60535 -3.999046,1.60535 -2.293359,0 -4.056379,-1.24701 -1.748687,-1.26135 -2.694697,-3.76971 l 2.494028,-0.70234 q 1.361682,3.0817 4.171047,3.0817 1.361682,0 2.264693,-0.81701 0.90301,-0.81701 0.90301,-2.06402 0,-0.74534 -0.473006,-1.49069 -0.473005,-0.75967 -1.175346,-1.24701 -0.702342,-0.48734 -2.250359,-1.10368 -1.533684,-0.63067 -2.365027,-1.14668 -0.817009,-0.53034 -1.419016,-1.24701 -0.602007,-0.73101 -0.888677,-1.44769 -0.272336,-0.71667 -0.272336,-1.53368 0,-1.96369 1.576684,-3.3397 1.576685,-1.39035 3.827044,-1.39035 1.490683,0 3.024367,0.645 1.533684,0.64501 2.551361,1.96369 z m 4.08505,0.97468 h 2.49403 v 3.44004 h 2.46536 v 2.27903 h -2.46536 v 9.5461 h -2.49403 v -9.5461 h -1.96369 v -2.3077 h 1.96369 z m 6.72241,3.44004 h 2.49403 v 6.66508 q 0,3.0817 2.70903,3.0817 1.20401,0 1.90635,-0.81701 0.70234,-0.83135 0.70234,-2.26469 v -6.66508 h 2.46536 v 7.06641 q 0,2.22169 -1.44768,3.65504 -1.44768,1.43335 -3.69804,1.43335 -2.29336,0 -3.71238,-1.43335 -1.41901,-1.43335 -1.41901,-3.74104 z m 23.19159,-6.77974 h 2.46536 v 18.60487 h -2.43669 v -2.46536 q -1.76302,2.79503 -4.61539,2.79503 -2.30769,0 -3.95604,-1.84902 -1.64835,-1.84902 -1.64835,-4.44338 0,-2.53703 1.67702,-4.35738 1.67702,-1.83469 3.99904,-1.83469 1.39035,0 2.59436,0.77401 1.20402,0.77401 1.92069,2.02102 z m 0.28667,12.67081 q 0,-1.59102 -1.16101,-2.75203 -1.16101,-1.17535 -2.76637,-1.17535 -1.66268,0 -2.82369,1.14668 -1.14668,1.13234 -1.14668,2.7807 0,1.57668 1.17534,2.76636 1.17535,1.17535 2.7377,1.17535 1.66269,0 2.8237,-1.14668 1.16101,-1.14668 1.16101,-2.79503 z m 5.54707,-9.77545 q 0,-0.77401 0.57333,-1.33301 0.57334,-0.57334 1.36169,-0.57334 0.77401,0 1.33301,0.57334 0.57334,0.559 0.57334,1.33301 0,0.78834 -0.57334,1.34735 -0.559,0.55901 -1.33301,0.55901 -0.78835,0 -1.36169,-0.55901 -0.57333,-0.55901 -0.57333,-1.34735 z m 0.70234,3.88438 h 2.46536 v 11.82513 h -2.46536 z m 5.53273,5.8624 q 0,-2.42236 1.90635,-4.30005 1.92069,-1.89202 4.40039,-1.89202 2.55136,0 4.45771,1.86335 1.90636,1.84902 1.90636,4.32872 0,2.49403 -1.87769,4.40038 -1.86335,1.89202 -4.31438,1.89202 -2.62303,0 -4.55805,-1.87768 -1.92069,-1.87769 -1.92069,-4.41472 z m 10.26278,0 q 0,-1.50502 -1.14668,-2.6087 -1.14668,-1.11801 -2.72336,-1.11801 -1.61969,0 -2.79504,1.13235 -1.16101,1.11801 -1.16101,2.68036 0,1.49068 1.17535,2.6087 1.18968,1.11801 2.7807,1.11801 1.54801,0 2.70903,-1.14668 1.16101,-1.14668 1.16101,-2.66603 z"
           id="path3" />
      </g>
      <path
         id="ellipse7"
         style="fill:#ac9393;stroke-width:0.334077"
         transform="matrix(1,0,0.21693046,0.97618706,0,0)"
         d="M 58.391735,117.22321 A 20.113979,20.604635 0 0 1 38.277756,137.82785 20.113979,20.604635 0 0 1 18.163776,117.22321 20.113979,20.604635 0 0 1 38.277756,96.618578 20.113979,20.604635 0 0 1 58.391735,117.22321 Z" />
      <path
         id="path4"
         style="fill:#ffff00;stroke-width:0.334077"
         transform="matrix(1,0,0.21693046,0.97618706,0,0)"
         d="M 59.730602,115.60435 A 20.113979,20.604635 0 0 1 39.616623,136.20898 20.113979,20.604635 0 0 1 19.502644,115.60435 20.113979,20.604635 0 0 1 39.616623,94.999712 20.113979,20.604635 0 0 1 59.730602,115.60435 Z" />
      <path
         style="font-size:40.9049px;line-height:0.85;font-family:'Tw Cen MT';-inkscape-font-specification:'Tw Cen MT';letter-spacing:0px;word-spacing:0px;fill:#241c1c;stroke-width:1.02263"
         d="m 39.500526,126.74355 -2.716341,-1.89745 5.61244,-8.12905 q -1.178413,0.15979 -1.797578,0.15979 -3.774916,0 -6.331472,-2.53658 -2.556556,-2.55656 -2.556556,-6.29153 0,-3.61513 2.77626,-6.3115 2.796234,-2.696366 6.511229,-2.696366 3.67505,0 6.431337,2.756286 2.77626,2.73632 2.77626,6.37142 0,2.93604 -1.877471,5.67236 z m 7.110422,-18.3353 q 0,-2.35683 -1.657767,-4.03457 -1.657767,-1.69771 -3.954673,-1.69771 -2.436717,0 -4.074511,1.67774 -1.637794,1.65776 -1.637794,4.13443 0,2.27693 1.737659,3.91473 1.73766,1.61782 4.19435,1.61782 2.25696,0 3.814862,-1.61782 1.577874,-1.6378 1.577874,-3.99462 z"
         id="text6"
         transform="skewX(12.528808)"
         aria-label="9" />
    </g>
  </g>
</svg>
